<svg width="208" height="209" viewBox="0 0 208 209" fill="none" xmlns="http://www.w3.org/2000/svg">
<path fill-rule="evenodd" clip-rule="evenodd" d="M103.565 207.339C160.763 207.339 207.13 160.971 207.13 103.773C207.13 46.5757 160.763 0.208008 103.565 0.208008C46.3677 0.208008 0 46.5757 0 103.773C0 160.971 46.3677 207.339 103.565 207.339Z" fill="#5645B2"/>
<mask id="mask0" mask-type="alpha" maskUnits="userSpaceOnUse" x="0" y="0" width="208" height="208">
<path fill-rule="evenodd" clip-rule="evenodd" d="M103.565 207.339C160.763 207.339 207.13 160.971 207.13 103.773C207.13 46.5757 160.763 0.208008 103.565 0.208008C46.3677 0.208008 0 46.5757 0 103.773C0 160.971 46.3677 207.339 103.565 207.339Z" fill="white"/>
</mask>
<g mask="url(#mask0)">
<path fill-rule="evenodd" clip-rule="evenodd" d="M105 218C165.751 218 215 168.751 215 108C215 47.2487 165.751 -2 105 -2C44.2487 -2 -5 47.2487 -5 108C-5 168.751 44.2487 218 105 218Z" fill="url(#paint0_linear)"/>
<mask id="mask1" mask-type="alpha" maskUnits="userSpaceOnUse" x="-5" y="-2" width="220" height="220">
<path fill-rule="evenodd" clip-rule="evenodd" d="M105 218C165.751 218 215 168.751 215 108C215 47.2487 165.751 -2 105 -2C44.2487 -2 -5 47.2487 -5 108C-5 168.751 44.2487 218 105 218Z" fill="white"/>
</mask>
<g mask="url(#mask1)">
<mask id="mask2" mask-type="alpha" maskUnits="userSpaceOnUse" x="22" y="158" width="164" height="70">
<path fill-rule="evenodd" clip-rule="evenodd" d="M22.8093 182.9C24.3535 185.408 26.0148 187.833 27.7932 190.174C44.7576 212.556 71.7963 227.197 102.371 227.706C102.914 227.717 103.457 227.717 104 227.717C104.543 227.717 105.086 227.717 105.629 227.706C136.204 227.197 163.242 212.556 180.207 190.174C181.985 187.833 183.646 185.408 185.191 182.9C172.879 164.191 141.166 158.531 104 158.531C66.8231 158.531 35.12 164.191 22.8093 182.9Z" fill="white"/>
</mask>
<g mask="url(#mask2)">
<path fill-rule="evenodd" clip-rule="evenodd" d="M22.8093 182.9C24.3535 185.408 26.0148 187.833 27.7932 190.174C44.7576 212.556 71.7963 227.197 102.371 227.706C102.914 227.717 103.457 227.717 104 227.717C104.543 227.717 105.086 227.717 105.629 227.706C136.204 227.197 163.242 212.556 180.207 190.174C181.985 187.833 183.646 185.408 185.191 182.9C172.879 164.191 141.166 158.531 104 158.531C66.8231 158.531 35.12 164.191 22.8093 182.9Z" fill="url(#paint1_linear)"/>
</g>
<mask id="mask3" mask-type="alpha" maskUnits="userSpaceOnUse" x="65" y="157" width="79" height="39">
<path fill-rule="evenodd" clip-rule="evenodd" d="M104.498 157.184C78.4673 155.994 65.221 164.481 65.4377 171.791C65.8572 185.941 82.855 195.658 104.498 195.918C126.143 195.658 143.141 185.941 143.56 171.791C143.762 164.947 132.163 157.072 109.324 157.072C107.767 157.072 106.16 157.108 104.498 157.184Z" fill="white"/>
</mask>
<g mask="url(#mask3)">
<path fill-rule="evenodd" clip-rule="evenodd" d="M104.498 157.184C78.4673 155.994 65.221 164.481 65.4377 171.791C65.8572 185.941 82.855 195.658 104.498 195.918C126.143 195.658 143.141 185.941 143.56 171.791C143.762 164.947 132.163 157.072 109.324 157.072C107.767 157.072 106.16 157.108 104.498 157.184Z" fill="url(#paint2_linear)"/>
</g>
<path fill-rule="evenodd" clip-rule="evenodd" d="M129 180H77L78.6927 136L102.994 137.333L127.307 136L129 180Z" fill="#DED7FF"/>
<mask id="mask4" mask-type="alpha" maskUnits="userSpaceOnUse" x="80" y="135" width="50" height="30">
<path fill-rule="evenodd" clip-rule="evenodd" d="M104.989 136.864L81.0552 135.536L80.3812 153.268C88.4781 160.339 98.0208 164.431 108.247 164.431C115.923 164.431 123.224 162.129 129.795 157.982L128.945 135.536L104.989 136.864Z" fill="white"/>
</mask>
<g mask="url(#mask4)">
<path fill-rule="evenodd" clip-rule="evenodd" d="M104.989 136.864L81.0552 135.536L80.3812 153.268C88.4781 160.339 98.0208 164.431 108.247 164.431C115.923 164.431 123.224 162.129 129.795 157.982L128.945 135.536L104.989 136.864Z" fill="#D4CCFD"/>
</g>
<mask id="mask5" mask-type="alpha" maskUnits="userSpaceOnUse" x="54" y="21" width="101" height="106">
<path fill-rule="evenodd" clip-rule="evenodd" d="M99.766 21L109.325 28.42C109.325 28.42 104.545 24.71 92.3313 24.18C82.1255 23.7369 74.8066 27.89 74.8066 27.89L83.8334 28.42C83.8334 28.42 73.309 33.8991 66.8408 42.2C55.6887 56.51 54.0956 68.7 54.0956 68.7L60.4682 65.52C60.4682 65.52 59.4061 72.94 60.4682 81.42C61.5303 89.9 62.0614 96.79 64.1856 105.27C66.3098 113.75 70.5582 126.47 70.5582 126.47L74.2745 117.46H133.753C133.753 117.46 136.408 123.29 138.533 126.47C144.905 113.75 148.623 98.38 150.746 86.72C152.871 75.06 149.684 65.52 149.684 65.52C149.684 65.52 153.402 69.23 154.995 71.88C153.933 60.22 148.623 51.74 146.499 47.5C144.374 43.26 138.002 37.96 132.691 35.84C122.069 22.06 99.766 21 99.766 21Z" fill="white"/>
</mask>
<g mask="url(#mask5)">
<path fill-rule="evenodd" clip-rule="evenodd" d="M99.766 21L109.325 28.42C109.325 28.42 104.545 24.71 92.3313 24.18C82.1255 23.7369 74.8066 27.89 74.8066 27.89L83.8334 28.42C83.8334 28.42 73.309 33.8991 66.8408 42.2C55.6887 56.51 54.0956 68.7 54.0956 68.7L60.4682 65.52C60.4682 65.52 59.4061 72.94 60.4682 81.42C61.5303 89.9 62.0614 96.79 64.1856 105.27C66.3098 113.75 70.5582 126.47 70.5582 126.47L74.2745 117.46H133.753C133.753 117.46 136.408 123.29 138.533 126.47C144.905 113.75 148.623 98.38 150.746 86.72C152.871 75.06 149.684 65.52 149.684 65.52C149.684 65.52 153.402 69.23 154.995 71.88C153.933 60.22 148.623 51.74 146.499 47.5C144.374 43.26 138.002 37.96 132.691 35.84C122.069 22.06 99.766 21 99.766 21Z" fill="url(#paint3_linear)"/>
</g>
<path fill-rule="evenodd" clip-rule="evenodd" d="M68.5812 91.5454C59.2444 87.6011 57.911 95.4897 59.2444 102.721C60.6286 110.222 64.58 119.154 71.249 116.526L68.5812 91.5454Z" fill="#D4CCFF"/>
<path fill-rule="evenodd" clip-rule="evenodd" d="M140.416 91.5454C149.753 87.6011 151.086 95.4897 149.753 102.721C148.369 110.222 144.418 119.154 137.749 116.526L140.416 91.5454Z" fill="#DED7FF"/>
<path fill-rule="evenodd" clip-rule="evenodd" d="M115.265 47.5342H93.7316C66.6491 47.5342 65.7548 80.995 66.1063 85.3262L68.5502 115.507C68.7243 117.655 69.198 119.767 69.9582 121.776L74.2308 133.082C75.6398 136.809 77.9908 140.082 81.0414 142.56L90.987 150.639C94.8357 153.765 99.596 155.466 104.498 155.466C109.401 155.466 114.161 153.765 118.01 150.639L127.956 142.56C131.006 140.082 133.357 136.809 134.766 133.082L139.039 121.776C139.799 119.767 140.273 117.655 140.447 115.507L142.892 85.3262C143.242 80.995 142.348 47.5342 115.265 47.5342Z" fill="#DED7FF"/>
<mask id="mask6" mask-type="alpha" maskUnits="userSpaceOnUse" x="68" y="47" width="82" height="109">
<path fill-rule="evenodd" clip-rule="evenodd" d="M68 72.3093L70.7676 108.007C70.7676 108.007 76.3996 83.501 85.0439 72.9237C84.9907 77.07 81.8498 88.1869 81.6594 88.8794C82.4305 87.6815 106.591 49.8713 105.401 61.4296C104.189 73.1706 98.6789 88.0619 98.6789 88.0619C98.6789 88.0619 122.173 80.8829 130.832 69.238C130.961 69.0692 131.069 68.9207 131.188 68.7625C131.236 69.2765 131.294 69.8001 131.361 70.3451L122.105 86.2249C122.105 86.2249 128.161 84.2832 133.347 81.3467C143.189 131.233 109.311 151.038 100.717 155.213C101.661 155.364 102.619 155.441 103.576 155.454C105.989 155.485 108.367 155.087 110.622 154.305C112.875 153.522 115.008 152.331 116.922 150.795L126.808 142.842C129.84 140.402 132.2 137.162 133.629 133.451L137.975 122.199C138.62 120.525 139.059 118.779 139.305 116.995C144.459 116.939 147.583 109.282 148.773 102.72C149.972 96.1055 148.974 88.9467 141.764 90.7933L142.226 85.7996C142.632 81.477 142.176 48.0108 115.545 47.6667L94.3583 47.3953C94.2232 47.3932 94.0871 47.3921 93.9531 47.3921C76.9272 47.391 70.3985 61.3334 68 72.3093Z" fill="white"/>
</mask>
<g mask="url(#mask6)">
<path fill-rule="evenodd" clip-rule="evenodd" d="M68 72.3093L70.7676 108.007C70.7676 108.007 76.3996 83.501 85.0439 72.9237C84.9907 77.07 81.8498 88.1869 81.6594 88.8794C82.4305 87.6815 106.591 49.8713 105.401 61.4296C104.189 73.1706 98.6789 88.0619 98.6789 88.0619C98.6789 88.0619 122.173 80.8829 130.832 69.238C130.961 69.0692 131.069 68.9207 131.188 68.7625C131.236 69.2765 131.294 69.8001 131.361 70.3451L122.105 86.2249C122.105 86.2249 128.161 84.2832 133.347 81.3467C143.189 131.233 109.311 151.038 100.717 155.213C101.661 155.364 102.619 155.441 103.576 155.454C105.989 155.485 108.367 155.087 110.622 154.305C112.875 153.522 115.008 152.331 116.922 150.795L126.808 142.842C129.84 140.402 132.2 137.162 133.629 133.451L137.975 122.199C138.62 120.525 139.059 118.779 139.305 116.995C144.459 116.939 147.583 109.282 148.773 102.72C149.972 96.1055 148.974 88.9467 141.764 90.7933L142.226 85.7996C142.632 81.477 142.176 48.0108 115.545 47.6667L94.3583 47.3953C94.2232 47.3932 94.0871 47.3921 93.9531 47.3921C76.9272 47.391 70.3985 61.3334 68 72.3093Z" fill="#BAADFC"/>
</g>
<path fill-rule="evenodd" clip-rule="evenodd" d="M105.596 37.0583C78.9933 39.1754 64.0958 52.9363 64.0958 69.8729C64.0958 86.8095 68.3522 101.629 71.5445 109.039C71.5445 107.759 71.6871 106.336 71.6754 104.837C71.5445 86.8095 84.3127 70.9314 84.3127 70.9314C84.3127 70.9314 82.1856 79.3997 83.2497 89.9851C87.5061 79.3997 93.8896 68.8144 103.467 57.1705C103.467 57.1705 99.2112 74.107 100.275 88.9265C105.596 81.5168 113.043 78.3412 120.493 70.9314C126.369 65.0862 130.07 58.229 130.07 58.229L126.878 74.107C125.814 79.3997 123.686 86.8095 123.686 86.8095C123.686 86.8095 131.134 81.5168 133.262 73.0485C137.519 83.6339 141.774 103.746 141.774 103.746L144.968 92.1021C144.968 92.1021 149.224 74.107 144.968 62.4632C140.971 51.5317 133.221 36.8678 110.275 36.8667C108.78 36.8667 107.223 36.9292 105.596 37.0583Z" fill="url(#paint4_linear)"/>
<mask id="mask7" mask-type="alpha" maskUnits="userSpaceOnUse" x="54" y="22" width="81" height="71">
<path fill-rule="evenodd" clip-rule="evenodd" d="M109.389 29.2159C108.547 28.651 103.57 25.6022 92.4644 25.1324C82.2221 24.6938 74.8788 28.7868 74.8788 28.7868L83.937 29.3088C83.937 29.3088 73.3761 34.7069 66.8854 42.8824C55.6946 56.9779 54.0959 68.9853 54.0959 68.9853L60.4907 65.8529C60.4907 65.8529 59.4249 73.1618 60.4907 81.5147C60.9703 85.284 61.3433 88.7296 61.8016 92.1543C62.6756 91.131 63.9225 90.5463 65.6598 90.5985C65.1162 87.0485 65.1056 83.2793 65.2121 79.7815C65.3933 74.0388 66.1927 65.8843 68.8252 60.6115C68.1324 63.1069 69.7417 76.4403 70.8182 79.9485C70.3492 77.9115 75.9446 48.625 97.2604 40.4391C93.6794 45.2953 90.353 51.9035 89.4482 57.7819C92.0913 52.2899 95.3207 48.4893 100.735 45.3047C106.096 42.1515 113.173 40.1781 119.343 39.3752C124.641 38.6746 130.076 38.236 134.796 40.0841C134.169 38.9345 133.572 37.7766 132.964 36.6176C122.305 23.0441 99.9249 22 99.9249 22L109.389 29.2159Z" fill="white"/>
</mask>
<g mask="url(#mask7)">
<path fill-rule="evenodd" clip-rule="evenodd" d="M109.389 29.2159C108.547 28.651 103.57 25.6022 92.4644 25.1324C82.2221 24.6938 74.8788 28.7868 74.8788 28.7868L83.937 29.3088C83.937 29.3088 73.3761 34.7069 66.8854 42.8824C55.6946 56.9779 54.0959 68.9853 54.0959 68.9853L60.4907 65.8529C60.4907 65.8529 59.4249 73.1618 60.4907 81.5147C60.9703 85.284 61.3433 88.7296 61.8016 92.1543C62.6756 91.131 63.9225 90.5463 65.6598 90.5985C65.1162 87.0485 65.1056 83.2793 65.2121 79.7815C65.3933 74.0388 66.1927 65.8843 68.8252 60.6115C68.1324 63.1069 69.7417 76.4403 70.8182 79.9485C70.3492 77.9115 75.9446 48.625 97.2604 40.4391C93.6794 45.2953 90.353 51.9035 89.4482 57.7819C92.0913 52.2899 95.3207 48.4893 100.735 45.3047C106.096 42.1515 113.173 40.1781 119.343 39.3752C124.641 38.6746 130.076 38.236 134.796 40.0841C134.169 38.9345 133.572 37.7766 132.964 36.6176C122.305 23.0441 99.9249 22 99.9249 22L109.389 29.2159Z" fill="url(#paint5_linear)"/>
</g>
</g>
</g>
<defs>
<linearGradient id="paint0_linear" x1="-25.5566" y1="-43.1133" x2="-25.5566" y2="218" gradientUnits="userSpaceOnUse">
<stop stop-color="#4F409C"/>
<stop offset="1" stop-color="#7D65D7"/>
</linearGradient>
<linearGradient id="paint1_linear" x1="22.8091" y1="227.458" x2="183.978" y2="227.458" gradientUnits="userSpaceOnUse">
<stop stop-color="#43359F"/>
<stop offset="1" stop-color="#2E2473"/>
</linearGradient>
<linearGradient id="paint2_linear" x1="143.562" y1="178.305" x2="143.562" y2="139.459" gradientUnits="userSpaceOnUse">
<stop stop-color="#DED7FF"/>
<stop offset="1" stop-color="#8878DC"/>
</linearGradient>
<linearGradient id="paint3_linear" x1="54.0954" y1="126.47" x2="154.995" y2="126.47" gradientUnits="userSpaceOnUse">
<stop stop-color="#423996"/>
<stop offset="1" stop-color="#1D1859"/>
</linearGradient>
<linearGradient id="paint4_linear" x1="62.0475" y1="110.594" x2="148.317" y2="115.288" gradientUnits="userSpaceOnUse">
<stop stop-color="#4E3BB8"/>
<stop offset="1" stop-color="#262862"/>
<stop offset="1" stop-color="#362597"/>
</linearGradient>
<linearGradient id="paint5_linear" x1="32.9432" y1="138.476" x2="170.69" y2="75.9842" gradientUnits="userSpaceOnUse">
<stop stop-color="#5645B2"/>
<stop offset="1" stop-color="#1A1353"/>
</linearGradient>
</defs>
</svg>
